# xmcd
#
# Track frame offsets: 
#        150
#        9078
#        19998
#        30683
#        42129
#        52389
#        64396
#        76794
#        87733
#        100116
#        110116
#        122025
#
# Disc length: 1819 seconds
#
# Revision: 0
# Processed by: cddbd v1.5.2PL0 Copyright (c) Steve Scherf et al.
# Submitted via: ExactAudioCopy v1.0b3
#
DISCID=9e07190c
DTITLE=Xangô Da Mangueira - Velho Batequeiro
DYEAR=1975
DGENRE=Latin-Br-Samba
TTITLE0=Carolina Meu Bem
TTITLE1=Caviar De Pobre
TTITLE2=Piso Na Barra Da Saia
TTITLE3=O Namoro De Maria
TTITLE4=O Velho Batuqueiro
TTITLE5=Brincadeira Tem Hora
TTITLE6=Ô Menina
TTITLE7=Dança Do Caxambu
TTITLE8=Tõ Bem Chegado
TTITLE9=No Tempo Dos Mil Réis
TTITLE10=Pau De Ibrauna
TTITLE11=Vim Da Bahia
EXTD=
EXTT0=
EXTT1=
EXTT2=
EXTT3=
EXTT4=
EXTT5=
EXTT6=
EXTT7=
EXTT8=
EXTT9=
EXTT10=
EXTT11=
PLAYORDER=
